<svg xmlns="http://www.w3.org/2000/svg" viewBox="0 0 24 24" id="json"><linearGradient id="a" x1="37.985" x2="37.992" y1="99.982" y2="99.976" gradientTransform="matrix(2341.4561 0 0 -2498.4375 -88937.328 249803.578)" gradientUnits="userSpaceOnUse"><stop offset="0"></stop><stop offset="1" stop-color="#fff"></stop></linearGradient><path fill="url(#a)" d="M11.98 17.865c5.31 7.238 10.506-2.02 10.498-7.588C22.469 3.694 15.797.015 11.975.015 5.841.015 0 5.084 0 12.02 0 19.73 6.696 24 11.975 24c-1.195-.172-5.176-1.025-5.229-10.195-.036-6.202 2.023-8.68 5.221-7.59.072.027 3.527 1.39 3.527 5.843 0 4.434-3.514 5.807-3.514 5.807z"></path><linearGradient id="b" x1="37.782" x2="37.773" y1="99.975" y2="99.982" gradientTransform="matrix(2065.9375 0 0 -2499.9961 -78033.563 249957.89)" gradientUnits="userSpaceOnUse"><stop offset="0"></stop><stop offset="1" stop-color="#fff"></stop></linearGradient><path fill="url(#b)" d="M11.973 6.21c-3.509-1.209-7.806 1.682-7.806 7.474C4.167 23.142 11.175 24 12.025 24 18.159 24 24 18.931 24 11.995 24 4.286 17.304.015 12.025.015c1.462-.203 7.881 1.582 7.881 10.355 0 5.721-4.793 8.836-7.91 7.505-.072-.027-3.527-1.39-3.527-5.843-.001-4.433 3.504-5.822 3.504-5.822z"></path></svg>